<svg xmlns="http://www.w3.org/2000/svg" width="976" height="595" viewBox="0 0 976 595">
<g>
<path d="M 223.79 355.50 C202.56,366.23 184.36,374.97 183.34,374.94 C182.33,374.91 167.75,368.04 150.95,359.69 C124.73,346.65 95.37,332.33 83.00,326.54 C81.07,325.64 75.22,322.56 70.00,319.70 L 60.50 314.50 L 59.96 277.18 L 67.94 281.09 C72.33,283.24 76.61,285.00 77.46,285.00 C78.31,285.00 79.00,285.41 79.00,285.92 C79.00,286.84 133.25,314.33 157.00,325.44 C179.90,336.16 181.81,337.00 183.36,337.00 C184.20,337.00 192.45,333.35 201.69,328.88 C216.89,321.54 280.69,289.92 285.16,287.51 C286.82,286.62 287.70,285.00 286.53,285.00 C286.27,285.00 273.55,291.13 258.28,298.62 C243.00,306.11 226.00,314.38 220.50,316.99 C215.00,319.61 204.33,324.72 196.80,328.34 L 183.11 334.92 L 168.30 327.86 C160.16,323.97 150.35,319.32 146.50,317.51 C138.31,313.66 84.67,287.62 81.00,285.71 C78.82,284.58 78.49,283.71 78.40,278.98 C78.35,275.72 78.83,273.03 79.62,272.24 C81.18,270.67 79.90,266.95 76.42,263.00 C69.56,255.21 67.76,242.83 72.11,233.39 C77.13,222.52 96.01,208.01 123.71,193.73 L 139.00 185.86 L 139.00 181.64 C139.00,178.11 138.56,177.17 136.25,175.80 C134.74,174.90 132.15,172.75 130.50,171.02 C127.63,168.01 127.49,167.44 127.16,157.62 C126.84,147.76 126.93,147.24 129.46,144.23 C130.91,142.50 133.57,140.56 135.37,139.91 C138.27,138.86 138.77,138.11 139.78,133.30 C141.32,125.99 144.52,119.86 149.55,114.61 C158.77,104.99 169.12,101.53 186.42,102.27 C199.70,102.85 203.00,103.78 211.22,109.29 C219.20,114.64 224.48,122.31 226.81,131.94 C228.29,138.08 228.82,139.01 231.12,139.52 C233.88,140.13 236.98,143.00 238.88,146.68 C239.49,147.89 240.00,152.29 240.00,156.47 C240.00,167.58 236.81,174.22 230.85,175.53 C228.01,176.16 227.91,176.36 228.20,181.20 L 228.50 186.21 L 241.64 192.97 C282.56,214.00 297.04,227.59 296.98,244.91 C296.95,252.27 295.01,257.58 290.34,263.07 C288.73,264.95 286.65,267.71 285.72,269.19 C284.22,271.58 284.20,272.06 285.51,273.37 C286.33,274.19 287.00,275.32 287.00,275.88 C287.00,276.44 287.60,277.26 288.33,277.70 C289.05,278.14 289.94,279.29 290.29,280.25 C291.13,282.51 296.80,281.91 301.67,279.03 C303.57,277.91 305.31,277.00 305.56,277.00 C305.80,277.00 306.00,285.26 306.00,295.35 C306.00,311.56 305.80,313.87 304.25,315.23 C301.84,317.34 265.48,336.00 263.77,336.00 C263.01,336.00 245.02,344.77 223.79,355.50 ZM 144.39 300.83 C144.85,301.57 148.17,302.00 153.52,302.00 C163.79,302.00 164.00,301.74 164.00,289.27 L 164.00 280.41 L 159.75 278.78 L 155.50 277.15 L 159.13 277.07 C161.12,277.03 163.25,276.41 163.84,275.69 C164.46,274.95 165.06,269.14 165.22,262.44 L 165.50 250.50 L 201.50 250.50 L 201.70 273.00 C201.81,285.38 202.17,296.96 202.50,298.75 L 203.09 302.00 L 211.85 302.00 C217.32,302.00 221.05,301.55 221.80,300.80 C223.51,299.09 223.51,242.91 221.80,241.20 C220.17,239.57 144.45,239.46 143.44,241.09 C142.02,243.40 142.89,298.40 144.39,300.83 ZM 469.89 287.00 L 463.70 301.00 L 455.85 301.00 C450.86,301.00 448.00,300.60 448.00,299.91 C448.00,299.31 454.38,284.50 462.19,267.00 L 476.38 235.17 L 481.44 234.82 C482.32,234.76 483.12,234.69 483.86,234.62 C486.25,234.41 487.96,234.25 489.45,234.75 C493.64,236.14 496.14,242.64 507.33,267.27 C515.34,284.91 521.67,299.72 521.39,300.18 C521.11,300.63 517.51,301.00 513.38,301.00 L 505.89 301.00 L 499.70 287.00 ZM 611.00 282.41 L 611.00 301.00 L 596.00 301.00 L 596.00 235.00 L 611.00 235.00 L 611.00 248.00 C611.00,255.15 611.40,261.00 611.90,261.00 C612.39,261.00 618.13,255.19 624.65,248.09 L 636.50 235.19 L 656.20 235.00 L 643.10 248.86 C635.89,256.48 630.00,263.06 630.00,263.47 C630.00,263.89 634.41,270.14 639.80,277.36 C654.57,297.18 655.98,299.23 655.41,300.15 C655.12,300.62 651.32,301.00 646.96,301.00 L 639.05 301.00 L 635.27 296.19 C633.20,293.54 630.60,290.12 629.50,288.59 C628.40,287.05 626.22,284.16 624.65,282.15 C623.08,280.14 621.17,277.62 620.40,276.54 C619.07,274.65 618.87,274.72 615.01,278.49 ZM 381.50 299.23 C369.44,303.85 353.22,300.90 343.28,292.29 L 340.05 289.50 L 348.87 279.52 L 351.68 281.61 C363.29,290.18 379.00,290.13 379.00,281.52 C379.00,278.18 375.80,276.26 365.32,273.31 C353.82,270.07 349.57,267.76 345.99,262.82 C343.54,259.44 343.00,257.72 343.00,253.22 C343.00,239.06 356.42,231.05 375.25,233.97 C382.44,235.09 392.00,239.20 392.00,241.18 C392.00,242.23 386.15,252.00 385.52,252.00 C385.37,252.00 383.24,250.88 380.78,249.50 C372.71,244.99 361.52,245.28 358.96,250.08 C356.64,254.41 362.02,258.35 374.37,261.39 C386.78,264.45 391.93,268.31 394.04,276.15 C396.60,285.65 391.25,295.50 381.50,299.23 ZM 572.38 298.87 C566.62,301.08 553.43,301.72 548.00,300.06 C539.24,297.39 529.68,288.97 525.80,280.50 C522.46,273.20 522.61,261.57 526.13,254.00 C529.36,247.06 535.56,240.86 542.84,237.28 C550.65,233.45 564.74,232.80 573.00,235.90 C578.81,238.08 586.00,243.31 586.00,245.36 C586.00,246.04 583.98,248.57 581.51,250.99 L 577.02 255.40 L 574.26 252.75 C566.91,245.71 555.26,245.15 546.65,251.42 C539.28,256.79 537.10,270.01 542.29,277.86 C545.34,282.48 549.42,285.40 555.34,287.20 C560.33,288.72 567.10,287.02 572.19,282.95 C574.22,281.33 576.49,280.00 577.24,280.00 C578.86,280.00 586.00,287.10 586.00,288.71 C586.00,290.77 578.03,296.71 572.38,298.87 ZM 176.16 198.14 C182.32,200.31 187.33,199.96 193.69,196.90 C203.42,192.21 210.01,182.27 210.80,171.09 C211.22,165.14 211.12,164.74 209.38,165.44 C202.28,168.29 194.65,166.29 187.29,159.64 L 183.32 156.06 L 180.41 159.12 C175.42,164.37 170.36,166.45 162.75,166.35 L 156.00 166.26 L 156.00 171.10 C156.00,181.44 165.69,194.43 176.16,198.14 ZM 434.03 247.00 L 433.50 300.50 L 426.46 300.79 C422.58,300.95 419.09,300.76 418.71,300.37 C418.32,299.98 418.00,287.82 418.00,273.33 L 418.00 247.00 L 399.00 247.00 L 399.00 235.00 L 453.00 235.00 L 453.00 247.00 ZM 168.69 301.36 C169.07,301.74 175.71,301.93 183.44,301.78 L 197.50 301.50 L 197.50 282.50 C197.50,272.05 197.33,261.36 197.12,258.75 L 196.75 254.00 L 169.30 254.00 L 168.65 264.66 C167.79,278.69 167.82,300.48 168.69,301.36 ZM 93.50 276.05 C94.60,276.50 100.51,276.90 106.63,276.94 C115.19,276.99 118.03,276.67 118.96,275.55 C121.25,272.79 119.64,270.82 113.19,268.49 C106.36,266.02 105.30,265.37 106.36,264.31 C106.74,263.93 110.13,264.61 113.90,265.83 C121.16,268.17 123.41,267.96 125.10,264.82 C126.71,261.81 124.16,258.89 116.56,255.03 C112.90,253.17 109.67,251.28 109.39,250.83 C108.16,248.83 113.92,250.30 120.76,253.73 C127.97,257.34 128.24,257.39 129.60,255.54 C131.55,252.86 131.37,251.59 128.55,248.24 C124.81,243.80 113.89,238.84 106.62,238.28 C101.36,237.87 100.01,238.14 97.02,240.18 C92.23,243.44 89.33,248.11 87.95,254.74 C85.68,265.69 87.76,273.71 93.50,276.05 ZM 249.18 275.94 C253.21,277.56 270.71,277.20 274.13,275.43 C279.51,272.65 281.15,265.52 278.88,254.80 C276.39,243.07 271.35,238.00 262.17,238.00 C250.30,238.00 234.53,247.79 236.48,253.95 C237.51,257.19 239.66,257.00 247.49,252.94 C251.68,250.77 255.80,249.00 256.64,249.00 C259.81,249.00 257.16,251.61 250.95,254.62 C243.27,258.34 240.55,261.01 241.48,263.93 C242.66,267.64 245.08,268.04 252.83,265.78 C256.78,264.63 260.31,263.98 260.67,264.34 C261.70,265.37 260.60,266.04 253.81,268.49 C249.06,270.20 247.42,271.29 247.18,272.89 C246.96,274.35 247.58,275.30 249.18,275.94 ZM 218.32 150.22 C220.51,151.61 221.76,151.02 222.27,148.35 C222.91,145.00 222.16,134.63 220.94,129.91 C217.93,118.32 202.87,107.00 190.46,107.00 L 186.00 107.00 L 186.00 127.75 L 189.12 128.38 C190.84,128.72 193.75,129.00 195.59,129.00 C200.49,129.00 210.11,132.91 213.12,136.13 C214.93,138.06 215.95,140.55 216.43,144.19 C216.82,147.09 217.66,149.80 218.32,150.22 ZM 144.54 147.07 C144.90,147.64 145.93,147.97 146.84,147.79 C147.99,147.57 148.66,146.10 149.02,142.98 C149.30,140.51 150.43,137.27 151.52,135.79 C154.22,132.11 162.03,129.24 170.79,128.71 C174.79,128.46 178.24,128.09 178.44,127.88 C178.80,127.52 179.38,110.83 179.12,108.25 C178.69,103.84 161.39,111.42 153.30,119.57 C150.39,122.51 148.00,125.54 148.00,126.30 C148.00,127.07 147.37,129.00 146.61,130.60 C145.03,133.90 143.57,145.50 144.54,147.07 ZM 119.50 236.85 C125.13,239.53 128.00,239.90 128.00,237.95 C128.00,237.49 130.59,235.02 133.75,232.46 C141.61,226.10 142.01,224.96 138.08,220.29 C136.33,218.20 134.01,215.45 132.94,214.17 C131.88,212.88 131.00,211.22 131.00,210.47 C131.00,207.78 129.25,208.18 123.64,212.16 C118.99,215.45 118.15,216.47 119.10,217.62 C120.05,218.77 119.10,220.18 114.14,225.02 C107.36,231.64 106.47,234.00 110.75,234.00 C112.26,234.00 116.20,235.29 119.50,236.85 ZM 236.50 235.38 C238.70,237.38 241.18,238.82 242.00,238.58 C247.31,237.06 257.51,232.96 257.75,232.26 C257.90,231.80 255.58,228.46 252.59,224.83 C249.31,220.85 247.52,217.88 248.07,217.33 C248.95,216.45 239.08,209.00 237.04,209.00 C236.52,209.00 235.35,210.56 234.44,212.48 C233.54,214.39 230.96,218.04 228.72,220.58 L 224.64 225.22 L 228.57 228.49 C230.73,230.28 234.30,233.39 236.50,235.38 ZM 227.73 296.40 C228.58,297.24 236.92,296.33 242.00,294.83 C247.58,293.18 255.57,288.01 257.46,284.81 C258.41,283.19 259.04,281.73 258.85,281.57 C258.66,281.41 255.32,281.02 251.44,280.71 C245.77,280.26 243.54,280.53 240.08,282.07 C237.72,283.13 233.81,284.00 231.39,284.00 L 227.00 284.00 L 227.00 289.83 C227.00,293.04 227.33,295.99 227.73,296.40 ZM 196.37 160.46 C204.76,164.15 212.00,160.79 212.00,153.22 C212.00,147.78 208.85,145.03 201.87,144.39 C198.92,144.12 194.48,144.27 192.00,144.72 C188.08,145.44 187.46,145.90 187.18,148.29 C186.78,151.73 191.89,158.50 196.37,160.46 ZM 157.50 159.59 C162.13,164.22 172.07,161.85 176.75,155.00 C179.32,151.24 179.64,147.78 177.59,146.07 C176.81,145.43 173.07,144.64 169.28,144.32 C163.94,143.87 161.67,144.12 159.16,145.42 C153.26,148.47 152.54,154.63 157.50,159.59 ZM 123.00 294.10 C125.89,295.29 129.47,295.87 133.00,295.73 C138.25,295.51 138.51,295.37 138.83,292.63 C139.49,286.88 138.41,285.29 133.36,284.53 C130.79,284.15 126.98,282.75 124.88,281.43 C121.79,279.47 120.59,279.21 118.47,280.01 C117.04,280.55 113.87,281.00 111.43,281.00 C109.00,281.00 107.00,281.42 107.00,281.92 C107.00,283.61 112.05,288.88 115.30,290.57 C117.06,291.49 120.53,293.08 123.00,294.10 ZM 157.00 139.90 C157.00,140.23 168.92,140.50 183.50,140.50 C198.07,140.50 210.00,140.19 210.00,139.82 C210.00,138.27 206.64,135.97 202.71,134.85 C196.95,133.20 170.77,133.22 165.00,134.89 C160.84,136.09 157.00,138.49 157.00,139.90 ZM 179.72 215.83 C181.61,218.77 183.31,221.02 183.48,220.83 C186.11,218.04 195.73,202.41 194.98,202.16 C194.42,201.97 192.55,202.31 190.83,202.91 C186.47,204.43 181.27,204.27 175.08,202.43 C172.18,201.57 169.65,201.02 169.45,201.21 C169.26,201.41 170.71,203.58 172.68,206.03 C174.65,208.49 177.82,212.90 179.72,215.83 ZM 476.00 273.01 C476.00,273.59 479.73,274.00 484.99,274.00 L 493.97 274.00 L 492.09 269.25 C487.67,258.09 484.91,252.69 484.08,253.57 C483.03,254.68 476.00,271.59 476.00,273.01 ZM 191.50 265.50 L 191.50 277.50 L 184.36 277.79 C176.06,278.13 174.00,276.87 174.00,271.45 C174.00,266.82 176.74,265.32 185.00,265.42 ZM 227.55 168.75 C228.15,171.51 229.01,171.57 231.73,169.04 C234.11,166.82 235.70,156.53 234.57,150.55 C233.97,147.30 230.91,144.00 228.53,144.00 C227.45,144.00 226.64,164.60 227.55,168.75 ZM 133.62 167.54 C135.46,170.35 137.51,170.73 138.39,168.42 C138.73,167.55 139.00,161.70 139.00,155.42 C139.00,143.13 138.53,142.21 134.31,146.17 C132.25,148.11 132.00,149.26 132.00,156.71 C132.00,162.72 132.45,165.76 133.62,167.54 ZM 278.50 233.94 C281.02,234.96 281.63,234.46 280.11,232.63 C278.85,231.12 275.22,229.54 270.77,228.57 C269.26,228.24 265.76,225.95 262.98,223.49 C258.49,219.49 254.00,217.64 254.00,219.77 C254.00,220.20 255.34,222.17 256.98,224.16 C258.62,226.15 260.41,228.96 260.96,230.39 C261.90,232.86 262.33,233.00 269.23,233.07 C273.23,233.11 277.40,233.50 278.50,233.94 ZM 87.87 230.90 L 85.52 232.81 L 94.54 232.90 C103.46,233.00 103.59,232.96 105.26,230.14 C106.19,228.57 108.62,225.66 110.66,223.68 C113.66,220.76 114.06,219.96 112.76,219.46 C110.80,218.71 108.04,220.13 101.68,225.16 C98.27,227.86 95.84,229.00 93.52,229.00 C91.71,229.00 89.16,229.86 87.87,230.90 ZM 217.06 185.21 C217.75,187.80 218.49,188.75 219.49,188.37 C221.83,187.47 222.26,184.31 221.53,173.54 C220.43,157.48 218.61,157.26 216.96,173.00 C216.39,178.40 216.43,182.85 217.06,185.21 ZM 134.06 199.27 C134.82,202.01 135.63,203.00 137.11,203.00 C142.38,203.00 144.25,199.41 142.02,193.57 C140.84,190.44 139.35,190.38 135.77,193.31 C133.24,195.38 133.11,195.83 134.06,199.27 ZM 190.00 287.00 C190.00,289.92 189.87,290.00 185.20,290.00 C180.13,290.00 178.00,288.76 178.00,285.80 C178.00,284.27 178.89,284.00 184.00,284.00 L 190.00 284.00 ZM 225.44 198.25 C225.77,199.76 226.56,201.00 227.20,201.00 C228.51,201.00 233.00,197.06 233.00,195.91 C233.00,195.50 231.38,194.16 229.40,192.94 C226.57,191.19 225.62,190.99 224.99,192.01 C224.55,192.73 224.33,193.81 224.51,194.41 C224.69,195.01 225.10,196.74 225.44,198.25 ZM 216.89 255.63 C215.27,257.58 207.11,257.45 206.35,255.46 C205.47,253.17 206.68,252.53 209.48,253.81 C212.34,255.11 215.00,254.43 215.00,252.39 C215.00,251.63 215.40,251.00 215.89,251.00 C217.41,251.00 218.10,254.18 216.89,255.63 ZM 158.08 257.25 C157.95,258.46 152.51,258.11 151.20,256.80 C150.54,256.14 150.00,254.93 150.00,254.10 C150.00,252.93 150.27,252.87 151.20,253.80 C152.87,255.47 155.95,255.30 156.64,253.51 C157.40,251.52 158.91,252.54 158.49,254.75 C158.30,255.71 158.12,256.84 158.08,257.25 ZM 182.00 272.00 C182.00,274.23 183.96,274.64 185.80,272.80 C187.66,270.94 187.23,270.00 184.50,270.00 C182.67,270.00 182.00,270.53 182.00,272.00 Z" fill="rgb(20,93,138)"/>
<path d="M 244.40 458.41 C210.51,475.23 182.73,488.96 182.65,488.91 C182.57,488.86 154.71,475.02 120.76,458.16 L 59.01 427.50 L 59.01 408.91 L 59.00 390.32 L 66.75 386.64 C76.89,381.82 77.55,381.40 77.22,380.00 C77.07,379.35 78.19,379.70 79.72,380.78 C81.25,381.86 83.62,383.07 85.00,383.49 C86.38,383.90 90.03,385.76 93.13,387.62 C96.23,389.48 99.05,391.00 99.40,391.00 C99.75,391.00 105.97,393.92 113.23,397.50 C120.48,401.08 127.09,404.00 127.92,404.00 C128.74,404.00 125.04,406.11 119.71,408.68 C114.37,411.26 110.00,413.62 110.00,413.93 C110.00,414.25 118.21,418.52 128.25,423.42 C138.29,428.33 154.60,436.31 164.49,441.16 C176.79,447.19 183.12,449.78 184.49,449.36 C189.35,447.85 255.86,414.58 255.42,413.88 C255.16,413.45 251.35,411.42 246.97,409.36 C242.59,407.31 239.00,405.36 239.00,405.03 C239.00,404.49 252.59,397.53 277.54,385.30 L 286.58 380.87 L 306.50 389.91 L 306.79 406.70 C306.94,415.94 306.83,424.47 306.54,425.66 C306.12,427.37 293.16,434.20 244.40,458.41 ZM 143.42 291.03 C142.60,274.50 142.37,242.83 143.44,241.09 C144.45,239.46 220.17,239.57 221.80,241.20 C223.13,242.53 223.43,276.93 222.68,292.87 C222.13,286.90 221.45,283.54 220.50,282.00 C219.60,280.54 217.43,280.78 216.00,282.50 C215.32,283.33 213.22,284.00 211.34,284.00 C209.39,284.00 206.65,284.94 204.96,286.19 C202.87,287.73 202.22,288.66 202.06,291.12 C201.89,286.30 201.76,279.77 201.70,273.00 L 201.50 250.50 L 165.50 250.50 L 165.22 262.44 C165.06,269.14 164.46,274.95 163.84,275.69 C163.25,276.41 161.12,277.03 159.13,277.07 L 155.50 277.15 L 159.75 278.78 L 164.00 280.41 L 164.00 289.27 C164.00,292.32 163.99,294.64 163.82,296.40 C164.01,292.78 163.15,287.88 161.63,285.56 C160.13,283.26 159.31,283.00 153.73,283.02 C146.81,283.03 146.09,283.34 144.14,287.14 C143.75,287.90 143.51,289.34 143.42,291.03 ZM 168.69 301.36 C167.82,300.48 167.79,278.69 168.65,264.66 L 169.30 254.00 L 196.75 254.00 L 197.12 258.75 C197.33,261.36 197.50,272.05 197.50,282.50 L 197.50 301.50 L 183.44 301.78 C175.71,301.93 169.07,301.74 168.69,301.36 ZM 73.40 321.54 C71.92,320.80 70.34,320.02 68.78,319.26 L 59.05 314.50 L 59.00 277.02 L 67.92 272.54 C72.83,270.07 77.15,267.57 77.52,266.97 C77.89,266.37 77.53,265.11 76.71,264.19 C75.90,263.26 74.03,260.11 72.57,257.19 C71.02,254.11 70.12,250.57 69.85,246.96 C70.34,252.86 72.59,258.65 76.42,263.00 C79.90,266.95 81.18,270.67 79.62,272.24 C78.83,273.03 78.35,275.72 78.40,278.98 C78.49,283.71 78.82,284.58 81.00,285.71 C84.67,287.62 138.31,313.66 146.50,317.51 C150.35,319.32 160.16,323.97 168.30,327.86 L 183.11 334.92 L 196.80 328.34 C204.33,324.72 215.00,319.61 220.50,316.99 C226.00,314.38 243.00,306.11 258.28,298.62 C273.55,291.13 286.27,285.00 286.53,285.00 C287.70,285.00 286.82,286.62 285.16,287.51 C280.69,289.92 216.89,321.54 201.69,328.88 C192.45,333.35 184.20,337.00 183.36,337.00 C181.81,337.00 179.90,336.16 157.00,325.44 C133.25,314.33 79.00,286.84 79.00,285.92 C79.00,285.41 78.31,285.00 77.46,285.00 C76.61,285.00 72.33,283.24 67.94,281.09 L 59.96 277.18 L 60.50 314.50 L 70.00 319.70 C71.12,320.31 72.27,320.93 73.40,321.54 ZM 218.32 150.22 C217.66,149.80 216.82,147.09 216.43,144.19 C215.95,140.55 214.93,138.06 213.12,136.13 C210.11,132.91 200.49,129.00 195.59,129.00 C193.75,129.00 190.84,128.72 189.12,128.38 L 186.00 127.75 L 186.00 107.00 L 190.46 107.00 C202.87,107.00 217.93,118.32 220.94,129.91 C222.16,134.63 222.91,145.00 222.27,148.35 C221.76,151.02 220.51,151.61 218.32,150.22 ZM 144.54 147.07 C143.57,145.50 145.03,133.90 146.61,130.60 C147.37,129.00 148.00,127.07 148.00,126.30 C148.00,125.54 150.39,122.51 153.30,119.57 C161.39,111.42 178.69,103.84 179.12,108.25 C179.38,110.83 178.80,127.52 178.44,127.88 C178.24,128.09 174.79,128.46 170.79,128.71 C162.03,129.24 154.22,132.11 151.52,135.79 C150.43,137.27 149.30,140.51 149.02,142.98 C148.66,146.10 147.99,147.57 146.84,147.79 C145.93,147.97 144.90,147.64 144.54,147.07 ZM 223.79 355.50 C245.02,344.77 263.01,336.00 263.77,336.00 C265.48,336.00 301.84,317.34 304.25,315.23 C305.80,313.87 306.00,311.56 306.00,295.35 C306.00,285.26 305.80,277.00 305.56,277.00 C305.31,277.00 303.57,277.91 301.67,279.03 C296.80,281.91 291.13,282.51 290.29,280.25 C289.94,279.29 289.05,278.14 288.33,277.70 C287.60,277.26 287.00,276.44 287.00,275.88 C287.00,275.32 286.33,274.19 285.51,273.37 C284.20,272.06 284.22,271.58 285.72,269.19 C286.65,267.71 288.73,264.95 290.34,263.07 C290.77,262.56 291.18,262.05 291.57,261.54 C291.34,261.86 291.11,262.20 290.87,262.54 C289.11,264.99 287.85,267.17 288.08,267.38 C288.31,267.60 292.66,269.85 297.75,272.39 L 307.00 277.02 L 307.00 295.76 L 307.00 314.50 L 284.61 326.00 C272.30,332.33 257.85,339.64 252.52,342.26 C246.09,345.41 242.63,347.69 242.29,349.01 C241.68,351.33 241.55,351.36 239.20,349.89 C237.73,348.98 232.81,351.09 211.22,361.89 C199.06,367.97 188.20,373.11 184.53,374.54 C189.01,372.73 205.25,364.87 223.79,355.50 ZM 191.50 265.50 L 185.00 265.42 C176.74,265.32 174.00,266.82 174.00,271.45 C174.00,276.87 176.06,278.13 184.36,277.79 L 191.50 277.50 ZM 227.55 168.75 C226.64,164.60 227.45,144.00 228.53,144.00 C230.91,144.00 233.97,147.30 234.57,150.55 C235.70,156.53 234.11,166.82 231.73,169.04 C229.01,171.57 228.15,171.51 227.55,168.75 ZM 133.62 167.54 C132.45,165.76 132.00,162.72 132.00,156.71 C132.00,149.26 132.25,148.11 134.31,146.17 C138.53,142.21 139.00,143.13 139.00,155.42 C139.00,161.70 138.73,167.55 138.39,168.42 C137.51,170.73 135.46,170.35 133.62,167.54 ZM 180.25 264.19 C184.75,264.52 186.52,264.17 191.75,261.95 C194.94,260.59 196.34,257.07 193.75,256.93 C193.06,256.90 189.35,256.68 185.50,256.45 C177.16,255.94 175.00,256.48 175.00,259.07 C175.00,260.37 175.73,261.04 177.25,261.12 C178.94,261.20 179.07,261.35 177.75,261.69 C174.57,262.52 175.93,263.88 180.25,264.19 ZM 217.06 185.21 C216.43,182.85 216.39,178.40 216.96,173.00 C218.61,157.26 220.43,157.48 221.53,173.54 C222.26,184.31 221.83,187.47 219.49,188.37 C218.49,188.75 217.75,187.80 217.06,185.21 ZM 134.06 199.27 C133.11,195.83 133.24,195.38 135.77,193.31 C139.35,190.38 140.84,190.44 142.02,193.57 C144.25,199.41 142.38,203.00 137.11,203.00 C135.63,203.00 134.82,202.01 134.06,199.27 ZM 190.00 287.00 L 190.00 284.00 L 184.00 284.00 C178.89,284.00 178.00,284.27 178.00,285.80 C178.00,288.76 180.13,290.00 185.20,290.00 C189.87,290.00 190.00,289.92 190.00,287.00 ZM 150.97 273.95 C151.58,275.08 152.94,276.00 154.00,276.00 C156.41,276.00 158.22,272.76 157.81,269.20 C157.54,266.84 157.06,266.50 154.00,266.50 C150.94,266.50 150.46,266.84 150.19,269.20 C150.02,270.69 150.37,272.82 150.97,273.95 ZM 209.45 273.56 C212.66,278.47 216.77,275.45 215.83,268.85 C215.56,266.89 214.91,266.50 212.00,266.50 C209.11,266.50 208.44,266.90 208.17,268.81 C207.99,270.08 208.57,272.21 209.45,273.56 ZM 225.44 198.25 C225.10,196.74 224.69,195.01 224.51,194.41 C224.33,193.81 224.55,192.73 224.99,192.01 C225.62,190.99 226.57,191.19 229.40,192.94 C231.38,194.16 233.00,195.50 233.00,195.91 C233.00,197.06 228.51,201.00 227.20,201.00 C226.56,201.00 225.77,199.76 225.44,198.25 ZM 278.50 233.94 C277.40,233.50 273.23,233.11 269.23,233.07 C262.33,233.00 261.90,232.86 260.96,230.39 C260.57,229.37 259.56,227.67 258.42,226.05 C259.49,227.51 260.48,228.99 260.94,229.87 C262.02,231.90 262.70,232.15 265.85,231.63 C267.86,231.29 270.85,230.99 272.50,230.94 C275.39,230.86 275.34,230.79 271.08,228.90 C270.51,228.65 269.87,228.31 269.18,227.92 C269.82,228.25 270.36,228.48 270.77,228.57 C275.22,229.54 278.85,231.12 280.11,232.63 C281.63,234.46 281.02,234.96 278.50,233.94 ZM 118.81 292.27 C117.44,291.64 116.16,291.03 115.30,290.57 C112.05,288.88 107.00,283.61 107.00,281.92 C107.00,281.42 109.00,281.00 111.43,281.00 C113.87,281.00 117.04,280.55 118.47,280.01 C120.59,279.21 121.79,279.47 124.88,281.43 C126.98,282.75 130.79,284.15 133.36,284.53 C135.72,284.89 137.22,285.42 138.07,286.49 C137.21,285.42 135.69,284.88 133.26,284.52 C130.64,284.13 128.05,283.47 127.50,283.04 C124.11,280.43 111.32,281.00 110.24,283.80 C109.57,285.55 113.79,289.51 118.81,292.27 ZM 216.89 255.63 C218.10,254.18 217.41,251.00 215.89,251.00 C215.40,251.00 215.00,251.63 215.00,252.39 C215.00,254.43 212.34,255.11 209.48,253.81 C206.68,252.53 205.47,253.17 206.35,255.46 C207.11,257.45 215.27,257.58 216.89,255.63 ZM 227.73 296.40 C227.33,295.99 227.00,293.04 227.00,289.83 L 227.00 284.00 L 231.39 284.00 C233.22,284.00 235.92,283.50 238.14,282.80 C236.39,283.42 234.47,284.03 233.00,284.42 C228.83,285.53 228.48,285.88 228.20,289.19 C228.00,291.48 228.47,293.33 229.52,294.38 C231.95,296.80 238.56,296.07 244.57,293.90 C243.68,294.27 242.81,294.59 242.00,294.83 C236.92,296.33 228.58,297.24 227.73,296.40 ZM 87.87 230.90 C89.16,229.86 91.71,229.00 93.52,229.00 C94.28,229.00 95.06,228.88 95.88,228.61 C95.27,228.86 94.77,229.00 94.44,229.00 C91.57,229.00 90.33,230.68 92.74,231.31 C93.71,231.56 96.58,231.82 99.13,231.88 C103.00,231.98 103.87,231.73 105.97,229.07 C105.68,229.47 105.44,229.83 105.26,230.14 C103.59,232.96 103.46,233.00 94.54,232.90 L 85.52 232.81 ZM 158.08 257.25 C158.12,256.84 158.30,255.71 158.49,254.75 C158.91,252.54 157.40,251.52 156.64,253.51 C155.95,255.30 152.87,255.47 151.20,253.80 C150.27,252.87 150.00,252.93 150.00,254.10 C150.00,254.93 150.54,256.14 151.20,256.80 C152.51,258.11 157.95,258.46 158.08,257.25 ZM 135.32 351.95 C130.07,349.60 128.47,349.38 127.29,349.91 C124.35,351.25 123.71,351.28 124.48,350.04 C125.69,348.07 120.64,344.88 102.30,336.02 C94.43,332.21 87.00,328.56 83.29,326.67 C93.35,331.39 114.08,341.47 135.32,351.95 ZM 119.50 236.85 C116.20,235.29 112.26,234.00 110.75,234.00 C106.47,234.00 107.36,231.64 114.14,225.02 C117.28,221.96 118.82,220.26 119.28,219.14 C118.88,220.23 117.60,221.84 115.07,224.61 C112.24,227.71 110.07,230.76 110.27,231.38 C110.46,231.99 113.96,234.12 118.06,236.11 C123.01,238.51 125.97,239.48 127.25,239.07 C126.06,239.48 123.47,238.74 119.50,236.85 ZM 248.75 280.54 C249.56,280.58 250.45,280.63 251.44,280.71 C255.32,281.02 258.66,281.41 258.85,281.57 C259.04,281.73 258.41,283.19 257.46,284.81 C256.94,285.67 255.98,286.69 254.74,287.74 C255.54,286.77 256.00,285.78 256.00,284.82 C256.00,282.00 255.44,281.67 248.80,280.55 C248.79,280.55 248.77,280.55 248.75,280.54 ZM 210.21 252.81 C211.75,254.35 213.41,253.82 213.82,251.67 C214.06,250.46 213.44,250.00 211.57,250.00 C208.77,250.00 208.32,250.92 210.21,252.81 ZM 152.00 251.93 C152.00,253.36 152.64,254.00 154.07,254.00 C155.50,254.00 156.04,253.46 155.81,252.26 C155.31,249.65 152.00,249.36 152.00,251.93 ZM 195.44 160.00 C191.22,157.59 186.81,151.50 187.18,148.29 C187.46,145.90 188.08,145.44 192.00,144.72 C194.48,144.27 198.92,144.12 201.87,144.39 C202.47,144.44 203.04,144.51 203.59,144.60 C202.39,144.52 200.90,144.50 198.96,144.50 C192.26,144.50 190.86,144.80 189.57,146.50 C188.74,147.60 188.05,149.36 188.03,150.41 C187.99,152.97 191.95,157.97 195.44,160.00 ZM 245.27 237.54 C247.49,236.65 250.27,235.45 252.75,234.29 C256.46,232.56 256.88,230.58 253.80,226.32 C256.18,229.33 257.88,231.86 257.75,232.26 C257.55,232.84 250.67,235.69 245.27,237.54 ZM 202.76 300.19 C203.32,301.87 204.35,302.00 211.85,302.00 L 203.09 302.00 ZM 295.67 253.91 C296.56,251.20 296.97,248.27 296.98,244.91 C297.00,238.30 294.91,232.24 290.04,226.10 C294.89,232.19 297.00,238.20 297.00,244.69 C297.00,248.29 296.64,251.14 295.67,253.91 ZM 251.22 223.12 C248.66,220.06 247.48,217.92 248.04,217.36 C248.39,217.01 247.16,215.70 245.40,214.22 C247.17,215.69 248.41,216.99 248.07,217.33 C247.60,217.80 248.82,220.02 251.22,223.12 ZM 183.34 374.94 C183.31,374.94 183.28,374.95 183.26,374.95 C182.67,374.93 177.88,372.77 171.03,369.47 C178.02,372.79 182.76,374.91 183.34,374.94 ZM 222.00 300.34 C221.93,300.58 221.87,300.73 221.80,300.80 C221.54,301.06 220.91,301.29 219.97,301.47 C220.89,301.22 221.54,300.86 222.00,300.34 ZM 101.65 225.18 L 101.68 225.16 C104.99,222.55 107.32,220.91 109.07,220.04 C107.46,220.87 105.34,222.34 102.53,224.52 C102.24,224.75 101.94,224.97 101.65,225.18 ZM 236.50 235.38 C234.30,233.39 230.73,230.28 228.57,228.49 C230.73,230.28 234.30,233.37 236.50,235.35 C236.86,235.67 237.21,235.99 237.55,236.28 C237.20,236.00 236.85,235.70 236.50,235.38 ZM 211.22 149.21 C210.81,148.41 210.22,147.68 209.42,146.92 C209.33,146.84 209.25,146.76 209.16,146.69 C210.07,147.37 210.75,148.21 211.22,149.21 ZM 125.90 295.04 C128.23,295.58 130.65,295.81 133.00,295.72 C135.84,295.61 137.22,295.51 137.94,295.02 C137.22,295.51 135.84,295.61 133.00,295.73 C130.58,295.83 128.13,295.58 125.90,295.04 ZM 264.67 224.90 C263.82,224.25 263.02,223.59 262.35,222.97 C262.19,222.82 262.04,222.69 261.88,222.55 C262.25,222.85 262.62,223.16 262.98,223.49 C263.53,223.97 264.10,224.44 264.67,224.90 ZM 111.34 223.00 C111.13,223.21 110.90,223.44 110.66,223.68 C109.67,224.64 108.58,225.82 107.62,226.96 C108.87,225.46 110.31,223.92 111.34,223.00 ZM 112.80 219.48 C113.31,219.68 113.54,219.93 113.44,220.36 C113.43,220.14 113.34,219.94 113.17,219.77 C113.06,219.66 112.93,219.56 112.80,219.48 ZM 144.39 300.83 C144.30,300.68 144.21,300.34 144.13,299.83 C144.25,300.28 144.38,300.66 144.53,300.98 C144.47,300.93 144.42,300.88 144.39,300.83 ZM 196.80 160.65 C200.43,162.13 203.80,162.31 206.44,161.42 C203.80,162.32 200.42,162.14 196.80,160.65 ZM 240.03 282.10 C240.04,282.09 240.06,282.08 240.08,282.07 C240.62,281.84 241.12,281.63 241.61,281.45 C241.51,281.49 241.41,281.53 241.30,281.58 C240.92,281.74 240.49,281.92 240.03,282.10 ZM 118.75 216.78 C118.77,215.85 120.11,214.66 123.64,212.16 C120.14,214.64 118.79,215.85 118.75,216.78 ZM 255.12 218.88 C254.42,218.86 254.00,219.14 254.00,219.77 C254.00,219.12 254.42,218.84 255.12,218.88 Z" fill="rgb(158,158,157)"/>
<path d="M 147.79 376.67 C166.88,386.11 182.92,393.87 183.43,393.92 C185.19,394.07 255.00,358.97 255.00,357.94 C255.00,357.36 251.96,355.53 248.25,353.86 C245.84,352.77 243.32,351.63 241.53,350.81 C241.85,350.61 242.02,350.03 242.29,349.01 C242.63,347.69 246.09,345.41 252.52,342.26 C257.85,339.64 272.30,332.33 284.61,326.00 L 290.88 322.78 C287.41,324.70 287.41,325.17 289.00,325.64 C290.37,326.03 294.99,328.11 299.27,330.25 L 307.04 334.15 L 306.77 352.32 L 306.50 370.50 L 296.50 375.66 L 286.50 380.82 L 289.13 382.03 L 286.58 380.87 L 277.54 385.30 C252.59,397.53 239.00,404.49 239.00,405.03 C239.00,405.27 240.89,406.36 243.60,407.73 L 237.70 404.91 L 211.10 418.09 C196.47,425.34 184.05,431.27 183.50,431.28 C182.95,431.28 170.52,425.37 155.88,418.14 C141.24,410.91 128.76,405.00 128.14,405.00 C127.63,405.00 125.15,406.07 122.18,407.46 C126.13,405.47 128.60,404.00 127.92,404.00 C127.09,404.00 120.48,401.08 113.23,397.50 C105.97,393.92 99.75,391.00 99.40,391.00 C99.05,391.00 96.23,389.48 93.13,387.62 C90.03,385.76 86.38,383.90 85.00,383.49 C83.62,383.07 81.25,381.86 79.72,380.78 C78.19,379.70 77.07,379.35 77.22,380.00 C77.28,380.27 77.31,380.50 77.24,380.73 C77.06,379.75 74.97,378.50 69.08,375.54 L 60.00 370.98 L 60.00 352.61 C60.00,339.10 60.33,333.99 61.25,333.27 C61.94,332.73 65.88,330.80 70.00,328.97 C74.12,327.13 77.92,325.28 78.43,324.84 C78.62,324.67 78.16,324.22 77.21,323.57 C79.80,324.94 81.97,326.05 83.00,326.54 C83.10,326.58 83.19,326.63 83.29,326.67 C87.00,328.56 94.43,332.21 102.30,336.02 C120.64,344.88 125.69,348.07 124.48,350.04 C124.16,350.56 124.08,350.86 124.32,350.93 C122.45,351.66 120.26,352.80 117.13,354.24 C112.26,356.46 111.03,357.43 111.92,358.33 C112.56,358.97 128.70,367.23 147.79,376.67 ZM 857.55 297.74 C850.50,301.33 836.13,301.92 827.92,298.96 C820.40,296.25 811.93,288.59 808.31,281.22 C805.85,276.21 805.50,274.39 805.54,266.50 C805.57,259.15 805.99,256.71 807.83,253.20 C811.13,246.93 816.44,241.47 822.85,237.78 C828.15,234.73 829.21,234.50 839.83,234.15 C850.99,233.78 851.25,233.83 857.65,237.08 C865.57,241.10 871.79,247.74 874.50,255.08 C880.59,271.58 873.40,289.67 857.55,297.74 ZM 679.00 282.29 L 679.00 301.00 L 672.04 301.00 C666.17,301.00 664.91,300.69 664.04,299.07 C662.84,296.84 662.59,238.16 663.77,236.39 C664.86,234.75 675.93,234.17 690.20,235.02 C704.60,235.88 708.95,237.55 714.41,244.34 C717.21,247.82 717.53,248.97 717.85,256.44 C718.25,266.08 716.43,270.85 710.49,275.75 C705.59,279.78 701.21,281.01 689.25,281.70 ZM 912.73 300.19 C911.23,301.14 900.59,301.26 899.67,300.33 C899.30,299.97 899.00,288.53 899.00,274.92 C899.00,261.30 898.73,249.45 898.39,248.58 C897.90,247.30 896.08,247.00 888.89,247.00 L 880.00 247.00 L 879.85 244.25 C879.58,239.30 880.17,235.51 881.35,234.72 C882.77,233.76 931.56,234.22 932.54,235.20 C932.93,235.59 932.93,238.39 932.55,241.42 L 931.87 246.92 L 923.18 247.21 L 914.50 247.50 L 914.23 273.45 C914.03,292.68 913.65,299.61 912.73,300.19 ZM 802.10 288.00 L 801.50 300.50 L 780.47 300.77 C764.95,300.97 759.12,300.72 758.22,299.82 C757.31,298.91 757.00,290.51 757.00,266.93 L 757.00 235.26 L 761.00 234.73 C763.20,234.43 766.80,234.43 769.00,234.73 L 773.00 235.26 L 773.00 286.74 L 776.75 287.36 C778.81,287.70 785.36,287.98 791.30,287.99 ZM 833.45 286.12 C853.17,295.07 870.21,269.42 855.42,253.05 C850.83,247.96 847.38,246.68 839.63,247.17 C828.07,247.91 821.00,255.47 821.00,267.09 C821.00,275.84 825.30,282.41 833.45,286.12 ZM 741.42 300.39 C738.51,301.51 729.15,301.05 728.34,299.75 C727.51,298.43 726.93,241.01 727.71,237.35 C728.25,234.79 731.00,234.10 737.97,234.77 L 743.00 235.25 L 743.00 267.52 C743.00,296.02 742.82,299.86 741.42,300.39 ZM 119.16 217.69 C120.22,218.34 121.90,217.83 123.13,216.35 C123.88,215.43 125.96,214.08 127.75,213.33 C129.60,212.56 130.77,211.41 131.00,210.37 C131.00,210.40 131.00,210.44 131.00,210.47 C131.00,211.22 131.88,212.88 132.94,214.17 C134.01,215.45 136.33,218.20 138.08,220.29 C142.01,224.96 141.61,226.10 133.75,232.46 C130.59,235.02 128.00,237.49 128.00,237.95 C128.00,238.52 127.75,238.90 127.25,239.07 C125.97,239.48 123.01,238.51 118.06,236.11 C113.96,234.12 110.46,231.99 110.27,231.38 C110.07,230.76 112.24,227.71 115.07,224.61 C117.60,221.84 118.88,220.23 119.28,219.14 C119.53,218.53 119.46,218.09 119.16,217.69 ZM 245.27 237.54 C244.08,237.95 242.96,238.31 242.00,238.58 C241.31,238.78 239.44,237.79 237.55,236.28 C237.21,235.99 236.86,235.67 236.50,235.35 C234.30,233.37 230.73,230.28 228.57,228.49 L 224.64 225.22 L 228.72 220.58 C230.96,218.04 233.54,214.39 234.44,212.48 C234.63,212.08 234.83,211.70 235.03,211.34 C235.05,212.21 235.65,213.01 236.75,213.04 C237.71,213.06 239.85,214.18 241.50,215.53 C244.11,217.67 246.66,218.48 247.91,217.67 C247.82,218.52 249.01,220.48 251.22,223.12 C251.64,223.66 252.10,224.24 252.59,224.83 C253.01,225.34 253.41,225.84 253.80,226.32 C256.88,230.58 256.46,232.56 252.75,234.29 C250.27,235.45 247.49,236.65 245.27,237.54 ZM 679.43 267.67 C679.79,268.62 682.24,269.00 688.07,269.00 C695.98,269.00 696.29,268.91 699.60,265.60 C702.32,262.88 703.00,261.41 703.00,258.23 C703.00,250.39 697.49,246.72 686.42,247.20 L 679.50 247.50 L 679.21 256.92 C679.05,262.11 679.15,266.95 679.43,267.67 ZM 202.76 300.19 L 202.50 298.75 C202.35,297.94 202.19,295.12 202.06,291.12 C202.22,288.66 202.87,287.73 204.96,286.19 C206.65,284.94 209.39,284.00 211.34,284.00 C213.22,284.00 215.32,283.33 216.00,282.50 C217.43,280.78 219.60,280.54 220.50,282.00 C221.45,283.54 222.13,286.90 222.68,292.87 C222.51,296.57 222.28,299.28 222.00,300.34 C221.54,300.86 220.89,301.22 219.97,301.47 C218.23,301.81 215.41,302.00 211.85,302.00 C204.35,302.00 203.32,301.87 202.76,300.19 ZM 143.42 291.03 C143.51,289.34 143.75,287.90 144.14,287.14 C146.09,283.34 146.81,283.03 153.73,283.02 C159.31,283.00 160.13,283.26 161.63,285.56 C163.15,287.88 164.01,292.78 163.82,296.40 C163.30,301.85 161.28,302.00 153.52,302.00 C148.54,302.00 145.32,301.63 144.53,300.98 C144.38,300.66 144.25,300.28 144.13,299.83 C143.86,298.27 143.62,295.11 143.42,291.03 ZM 157.50 159.59 C152.54,154.63 153.26,148.47 159.16,145.42 C161.67,144.12 163.94,143.87 169.28,144.32 C173.07,144.64 176.81,145.43 177.59,146.07 C179.64,147.78 179.32,151.24 176.75,155.00 C172.07,161.85 162.13,164.22 157.50,159.59 ZM 196.37 160.46 C196.06,160.33 195.76,160.17 195.44,160.00 L 195.44 160.00 C191.95,157.97 187.99,152.97 188.03,150.41 C188.05,149.36 188.74,147.60 189.57,146.50 C190.86,144.80 192.26,144.50 198.96,144.50 C200.90,144.50 202.39,144.52 203.59,144.60 C205.97,144.98 207.81,145.66 209.16,146.69 C209.25,146.76 209.33,146.84 209.42,146.92 C210.22,147.68 210.81,148.41 211.22,149.21 C211.74,150.34 212.00,151.67 212.00,153.22 C212.00,157.38 209.81,160.27 206.44,161.42 L 206.44 161.42 C203.80,162.31 200.42,162.13 196.80,160.65 C196.66,160.59 196.52,160.53 196.37,160.46 ZM 248.75 280.54 C248.77,280.55 248.79,280.55 248.80,280.55 C255.44,281.67 256.00,282.00 256.00,284.82 C256.00,285.78 255.54,286.77 254.74,287.74 C252.08,289.99 248.12,292.41 244.57,293.90 C238.56,296.07 231.95,296.80 229.52,294.38 C228.47,293.33 228.00,291.48 228.20,289.19 C228.48,285.88 228.83,285.53 233.00,284.42 C234.47,284.03 236.39,283.42 238.14,282.80 C238.83,282.58 239.47,282.35 240.03,282.10 C240.49,281.92 240.92,281.74 241.30,281.58 C241.41,281.53 241.51,281.49 241.61,281.45 C243.75,280.67 245.66,280.42 248.75,280.54 ZM 123.00 294.10 C121.74,293.58 120.23,292.92 118.81,292.27 C113.79,289.51 109.57,285.55 110.24,283.80 C111.32,281.00 124.11,280.43 127.50,283.04 C128.05,283.47 130.64,284.13 133.26,284.52 C135.69,284.88 137.21,285.42 138.07,286.49 L 138.07 286.49 C139.04,287.69 139.18,289.57 138.83,292.63 C138.68,293.89 138.55,294.60 137.94,295.02 C137.22,295.51 135.84,295.61 133.00,295.72 C130.65,295.81 128.23,295.58 125.90,295.04 L 125.90 295.04 C124.88,294.79 123.91,294.47 123.00,294.10 ZM 189.59 262.83 C189.67,262.37 186.81,262.00 183.06,262.00 C178.99,262.00 176.48,262.48 176.08,263.00 C175.80,262.56 176.30,262.07 177.75,261.69 C179.07,261.35 178.94,261.20 177.25,261.12 C175.73,261.04 175.00,260.37 175.00,259.07 C175.00,256.48 177.16,255.94 185.50,256.45 C189.35,256.68 193.06,256.90 193.75,256.93 C196.34,257.07 194.94,260.59 191.75,261.95 C190.96,262.28 190.25,262.58 189.59,262.83 ZM 306.79 421.27 C306.88,417.67 306.88,412.32 306.79,406.70 L 306.52 391.06 C306.99,393.07 307.00,397.44 307.00,407.90 C307.00,414.12 306.95,418.36 306.79,421.27 ZM 280.29 440.45 C297.59,431.67 304.51,427.82 306.15,426.21 C305.97,426.74 305.77,427.09 305.52,427.34 C305.04,427.81 295.15,432.94 280.29,440.45 ZM 243.76 212.92 C240.78,210.94 237.31,209.10 236.41,209.40 C236.66,209.14 236.88,209.00 237.04,209.00 C238.07,209.00 241.12,210.91 243.76,212.92 ZM 126.58 350.23 C126.80,350.14 127.04,350.03 127.29,349.91 C128.26,349.47 129.51,349.54 132.85,350.89 C130.64,350.14 128.98,349.91 127.38,350.10 C127.12,350.13 126.85,350.18 126.58,350.23 ZM 183.34 374.94 L 183.34 374.94 C183.47,374.94 183.88,374.81 184.53,374.54 L 184.53 374.54 C188.20,373.11 198.99,368.00 211.10,361.95 C196.75,369.13 184.33,375.00 183.50,375.00 C183.45,375.00 183.37,374.98 183.25,374.95 L 183.26 374.95 C183.28,374.95 183.31,374.94 183.34,374.94 ZM 72.26 383.99 C70.84,384.69 69.03,385.55 66.75,386.64 L 59.00 390.32 L 66.50 386.66 C68.66,385.61 70.71,384.66 72.26,383.99 ZM 126.49 210.24 C123.65,212.03 120.06,214.81 118.90,216.26 C119.34,215.38 120.76,214.20 123.64,212.16 C124.73,211.38 125.68,210.74 126.49,210.24 ZM 301.38 317.38 L 307.00 314.50 L 307.00 295.76 L 307.00 277.02 L 307.00 314.54 ZM 248.95 410.31 C252.45,412.01 255.20,413.51 255.42,413.88 C255.43,413.88 255.43,413.88 255.43,413.89 C255.11,413.51 252.42,412.03 248.95,410.31 ZM 244.40 458.41 C249.18,456.03 253.62,453.82 257.74,451.77 C253.13,454.08 248.33,456.47 243.41,458.91 C234.58,463.29 226.17,467.46 218.58,471.21 C226.45,467.32 235.20,462.98 244.40,458.41 ZM 305.70 389.55 L 303.15 388.39 C303.87,388.70 304.43,388.94 304.75,389.06 C305.13,389.21 305.44,389.34 305.70,389.55 ZM 182.64 488.91 C182.64,488.91 182.64,488.91 182.63,488.91 C182.56,488.86 155.04,475.18 121.35,458.45 C154.88,475.10 182.31,488.73 182.64,488.91 ZM 113.00 412.08 C111.27,413.01 110.09,413.73 110.01,413.95 C110.00,413.94 110.00,413.94 110.00,413.93 C110.00,413.77 111.15,413.07 113.00,412.08 Z" fill="rgb(236,142,50)"/>
<path d="M 0.00 297.50 L 0.00 0.00 L 488.00 0.00 L 976.00 0.00 L 976.00 297.50 L 976.00 595.00 L 488.00 595.00 L 0.00 595.00 L 0.00 297.50 ZM 243.41 458.91 C276.76,442.36 304.71,428.15 305.52,427.34 C306.72,426.14 307.00,422.41 307.00,407.90 C307.00,390.21 306.97,389.94 304.75,389.06 C303.51,388.58 298.90,386.52 294.50,384.50 L 286.50 380.82 L 296.50 375.66 L 306.50 370.50 L 306.77 352.32 L 307.04 334.15 L 299.27 330.25 C294.99,328.11 290.37,326.03 289.00,325.64 C286.78,324.99 287.67,324.32 296.75,319.73 L 307.00 314.54 L 307.00 295.78 L 307.00 277.02 L 297.75 272.39 C292.66,269.85 288.31,267.60 288.08,267.38 C287.85,267.17 289.11,264.99 290.87,262.54 C295.57,255.99 297.00,251.82 297.00,244.69 C297.00,227.58 282.35,213.89 241.64,192.97 L 228.50 186.21 L 228.20 181.20 C227.91,176.36 228.01,176.16 230.85,175.53 C236.81,174.22 240.00,167.58 240.00,156.47 C240.00,152.29 239.49,147.89 238.88,146.68 C236.98,143.00 233.88,140.13 231.12,139.52 C228.82,139.01 228.29,138.08 226.81,131.94 C224.48,122.31 219.20,114.64 211.22,109.29 C203.00,103.78 199.70,102.85 186.42,102.27 C169.12,101.53 158.77,104.99 149.55,114.61 C144.52,119.86 141.32,125.99 139.78,133.30 C138.77,138.11 138.27,138.86 135.37,139.91 C133.57,140.56 130.91,142.50 129.46,144.23 C126.93,147.24 126.84,147.76 127.16,157.62 C127.49,167.44 127.63,168.01 130.50,171.02 C132.15,172.75 134.74,174.90 136.25,175.80 C138.56,177.17 139.00,178.11 139.00,181.64 L 139.00 185.86 L 123.71 193.73 C96.01,208.01 77.13,222.52 72.11,233.39 C68.83,240.51 69.01,250.10 72.57,257.19 C74.03,260.11 75.90,263.26 76.71,264.19 C77.53,265.11 77.89,266.37 77.52,266.97 C77.15,267.57 72.83,270.07 67.92,272.54 L 59.00 277.02 L 59.03 295.76 L 59.05 314.50 L 69.21 319.27 C74.79,321.89 78.94,324.40 78.43,324.84 C77.92,325.28 74.12,327.13 70.00,328.97 C65.88,330.80 61.94,332.73 61.25,333.27 C60.33,333.99 60.00,339.10 60.00,352.61 L 60.00 370.98 L 69.08 375.54 C76.68,379.36 77.96,380.34 76.96,381.55 C76.30,382.35 75.36,383.00 74.88,383.00 C74.40,383.00 70.63,384.65 66.50,386.66 L 59.00 390.32 L 59.01 408.91 L 59.01 427.50 L 120.76 458.16 C154.71,475.02 182.56,488.86 182.63,488.91 C182.71,488.96 210.06,475.46 243.41,458.91 ZM 381.50 299.23 C391.25,295.50 396.60,285.65 394.04,276.15 C391.93,268.31 386.78,264.45 374.37,261.39 C362.02,258.35 356.64,254.41 358.96,250.08 C361.52,245.28 372.71,244.99 380.78,249.50 C383.24,250.88 385.37,252.00 385.52,252.00 C386.15,252.00 392.00,242.23 392.00,241.18 C392.00,239.20 382.44,235.09 375.25,233.97 C356.42,231.05 343.00,239.06 343.00,253.22 C343.00,257.72 343.54,259.44 345.99,262.82 C349.57,267.76 353.82,270.07 365.32,273.31 C375.80,276.26 379.00,278.18 379.00,281.52 C379.00,290.13 363.29,290.18 351.68,281.61 L 348.87 279.52 L 344.46 284.51 L 340.05 289.50 L 343.28 292.29 C353.22,300.90 369.44,303.85 381.50,299.23 ZM 433.77 273.75 L 434.03 247.00 L 443.52 247.00 L 453.00 247.00 L 453.00 241.00 L 453.00 235.00 L 426.00 235.00 L 399.00 235.00 L 399.00 241.00 L 399.00 247.00 L 408.50 247.00 L 418.00 247.00 L 418.00 273.33 C418.00,287.82 418.32,299.98 418.71,300.37 C419.09,300.76 422.58,300.95 426.46,300.79 L 433.50 300.50 L 433.77 273.75 ZM 466.79 294.00 L 469.89 287.00 L 484.79 287.00 L 499.70 287.00 L 502.79 294.00 L 505.89 301.00 L 513.38 301.00 C517.51,301.00 521.11,300.63 521.39,300.18 C521.67,299.72 515.34,284.91 507.33,267.27 C490.93,231.17 493.20,234.01 481.44,234.82 L 476.38 235.17 L 462.19 267.00 C454.38,284.50 448.00,299.31 448.00,299.91 C448.00,300.60 450.86,301.00 455.85,301.00 L 463.70 301.00 L 466.79 294.00 ZM 572.38 298.87 C578.03,296.71 586.00,290.77 586.00,288.71 C586.00,287.10 578.86,280.00 577.24,280.00 C576.49,280.00 574.22,281.33 572.19,282.95 C567.10,287.02 560.33,288.72 555.34,287.20 C549.42,285.40 545.34,282.48 542.29,277.86 C537.10,270.01 539.28,256.79 546.65,251.42 C555.26,245.15 566.91,245.71 574.26,252.75 L 577.02 255.40 L 581.51 250.99 C583.98,248.57 586.00,246.04 586.00,245.36 C586.00,243.31 578.81,238.08 573.00,235.90 C564.74,232.80 550.65,233.45 542.84,237.28 C535.56,240.86 529.36,247.06 526.13,254.00 C522.61,261.57 522.46,273.20 525.80,280.50 C529.68,288.97 539.24,297.39 548.00,300.06 C553.43,301.72 566.62,301.08 572.38,298.87 ZM 611.00 291.70 L 611.00 282.41 L 615.01 278.49 C618.87,274.72 619.07,274.65 620.40,276.54 C621.17,277.62 623.08,280.14 624.65,282.15 C626.22,284.16 628.40,287.05 629.50,288.59 C630.60,290.12 633.20,293.54 635.27,296.19 L 639.05 301.00 L 646.96 301.00 C651.32,301.00 655.12,300.62 655.41,300.15 C655.98,299.23 654.57,297.18 639.80,277.36 C634.41,270.14 630.00,263.89 630.00,263.47 C630.00,263.06 635.89,256.48 643.10,248.86 L 656.20 235.00 L 646.35 235.09 L 636.50 235.19 L 624.65 248.09 C618.13,255.19 612.39,261.00 611.90,261.00 C611.40,261.00 611.00,255.15 611.00,248.00 L 611.00 235.00 L 603.50 235.00 L 596.00 235.00 L 596.00 268.00 L 596.00 301.00 L 603.50 301.00 L 611.00 301.00 L 611.00 291.70 ZM 679.00 291.64 L 679.00 282.29 L 689.25 281.70 C701.21,281.01 705.59,279.78 710.49,275.75 C716.43,270.85 718.25,266.08 717.85,256.44 C717.53,248.97 717.21,247.82 714.41,244.34 C708.95,237.55 704.60,235.88 690.20,235.02 C675.93,234.17 664.86,234.75 663.77,236.39 C662.59,238.16 662.84,296.84 664.04,299.07 C664.91,300.69 666.17,301.00 672.04,301.00 L 679.00 301.00 L 679.00 291.64 ZM 741.42 300.39 C742.82,299.86 743.00,296.02 743.00,267.52 L 743.00 235.25 L 737.97 234.77 C731.00,234.10 728.25,234.79 727.71,237.35 C726.93,241.01 727.51,298.43 728.34,299.75 C729.15,301.05 738.51,301.51 741.42,300.39 ZM 801.80 294.25 L 802.10 288.00 L 791.30 287.99 C785.36,287.98 778.81,287.70 776.75,287.36 L 773.00 286.74 L 773.00 261.00 L 773.00 235.26 L 769.00 234.73 C766.80,234.43 763.20,234.43 761.00,234.73 L 757.00 235.26 L 757.00 266.93 C757.00,290.51 757.31,298.91 758.22,299.82 C759.12,300.72 764.95,300.97 780.47,300.77 L 801.50 300.50 L 801.80 294.25 ZM 857.55 297.74 C873.40,289.67 880.59,271.58 874.50,255.08 C871.79,247.74 865.57,241.10 857.65,237.08 C851.25,233.83 850.99,233.78 839.83,234.15 C829.21,234.50 828.15,234.73 822.85,237.78 C816.44,241.47 811.13,246.93 807.83,253.20 C805.99,256.71 805.57,259.15 805.54,266.50 C805.50,274.39 805.85,276.21 808.31,281.22 C811.93,288.59 820.40,296.25 827.92,298.96 C836.13,301.92 850.50,301.33 857.55,297.74 ZM 912.73 300.19 C913.65,299.61 914.03,292.68 914.23,273.45 L 914.50 247.50 L 923.18 247.21 L 931.87 246.92 L 932.55 241.42 C932.93,238.39 932.93,235.59 932.54,235.20 C931.56,234.22 882.77,233.76 881.35,234.72 C880.17,235.51 879.58,239.30 879.85,244.25 L 880.00 247.00 L 888.89 247.00 C896.08,247.00 897.90,247.30 898.39,248.58 C898.73,249.45 899.00,261.30 899.00,274.92 C899.00,288.53 899.30,299.97 899.67,300.33 C900.59,301.26 911.23,301.14 912.73,300.19 ZM 164.49 441.16 C154.60,436.31 138.29,428.33 128.25,423.42 C118.21,418.52 110.00,414.26 110.00,413.97 C110.00,413.27 126.72,405.00 128.14,405.00 C128.76,405.00 141.24,410.91 155.88,418.14 C170.52,425.37 182.95,431.28 183.50,431.28 C184.05,431.27 196.47,425.34 211.10,418.09 L 237.70 404.91 L 246.34 409.04 C251.09,411.31 255.19,413.50 255.45,413.91 C255.87,414.59 189.20,447.90 184.49,449.36 C183.12,449.78 176.79,447.19 164.49,441.16 ZM 147.79 376.67 C128.70,367.23 112.56,358.97 111.92,358.33 C111.03,357.43 112.26,356.46 117.13,354.24 C130.65,348.06 126.47,347.23 155.86,361.93 C170.23,369.12 182.67,375.00 183.50,375.00 C184.33,375.00 196.78,369.11 211.17,361.92 C232.84,351.07 237.68,349.00 239.41,349.83 C240.56,350.37 244.54,352.18 248.25,353.86 C251.96,355.53 255.00,357.36 255.00,357.94 C255.00,358.97 185.19,394.07 183.43,393.92 C182.92,393.87 166.88,386.11 147.79,376.67 ZM 93.50 276.05 C87.76,273.71 85.68,265.69 87.95,254.74 C89.33,248.11 92.23,243.44 97.02,240.18 C100.01,238.14 101.36,237.87 106.62,238.28 C113.89,238.84 124.81,243.80 128.55,248.24 C131.37,251.59 131.55,252.86 129.60,255.54 C128.24,257.39 127.97,257.34 120.76,253.73 C113.92,250.30 108.16,248.83 109.39,250.83 C109.67,251.28 112.90,253.17 116.56,255.03 C124.16,258.89 126.71,261.81 125.10,264.82 C123.41,267.96 121.16,268.17 113.90,265.83 C110.13,264.61 106.74,263.93 106.36,264.31 C105.30,265.37 106.36,266.02 113.19,268.49 C119.64,270.82 121.25,272.79 118.96,275.55 C118.03,276.67 115.19,276.99 106.63,276.94 C100.51,276.90 94.60,276.50 93.50,276.05 ZM 249.18 275.94 C247.58,275.30 246.96,274.35 247.18,272.89 C247.42,271.29 249.06,270.20 253.81,268.49 C260.60,266.04 261.70,265.37 260.67,264.34 C260.31,263.98 256.78,264.63 252.83,265.78 C245.08,268.04 242.66,267.64 241.48,263.93 C240.55,261.01 243.27,258.34 250.95,254.62 C257.16,251.61 259.81,249.00 256.64,249.00 C255.80,249.00 251.68,250.77 247.49,252.94 C239.66,257.00 237.51,257.19 236.48,253.95 C234.53,247.79 250.30,238.00 262.17,238.00 C271.35,238.00 276.39,243.07 278.88,254.80 C281.15,265.52 279.51,272.65 274.13,275.43 C270.71,277.20 253.21,277.56 249.18,275.94 ZM 150.97 273.95 C150.37,272.82 150.02,270.69 150.19,269.20 C150.46,266.84 150.94,266.50 154.00,266.50 C157.06,266.50 157.54,266.84 157.81,269.20 C158.22,272.76 156.41,276.00 154.00,276.00 C152.94,276.00 151.58,275.08 150.97,273.95 ZM 209.45 273.56 C208.57,272.21 207.99,270.08 208.17,268.81 C208.44,266.90 209.11,266.50 212.00,266.50 C214.91,266.50 215.56,266.89 215.83,268.85 C216.77,275.45 212.66,278.47 209.45,273.56 ZM 182.00 272.00 C182.00,270.53 182.67,270.00 184.50,270.00 C187.23,270.00 187.66,270.94 185.80,272.80 C183.96,274.64 182.00,274.23 182.00,272.00 ZM 180.25 264.19 C173.28,263.69 175.44,262.00 183.06,262.00 C186.94,262.00 189.87,262.40 189.57,262.88 C188.84,264.07 185.37,264.56 180.25,264.19 ZM 152.00 251.93 C152.00,249.36 155.31,249.65 155.81,252.26 C156.04,253.46 155.50,254.00 154.07,254.00 C152.64,254.00 152.00,253.36 152.00,251.93 ZM 210.21 252.81 C208.32,250.92 208.77,250.00 211.57,250.00 C213.44,250.00 214.06,250.46 213.82,251.67 C213.41,253.82 211.75,254.35 210.21,252.81 ZM 92.74 231.31 C90.33,230.68 91.57,229.00 94.44,229.00 C95.72,229.00 99.36,226.98 102.53,224.52 C108.91,219.56 111.71,218.31 113.17,219.77 C113.80,220.40 113.31,221.41 111.79,222.62 C110.50,223.65 108.16,226.19 106.60,228.25 C104.00,231.68 103.37,231.99 99.13,231.88 C96.58,231.82 93.71,231.56 92.74,231.31 ZM 260.94 229.87 C260.26,228.56 258.41,225.93 256.85,224.02 C255.28,222.11 254.00,220.20 254.00,219.77 C254.00,217.70 258.51,219.43 262.35,222.97 C264.72,225.15 268.64,227.82 271.08,228.90 C275.34,230.79 275.39,230.86 272.50,230.94 C270.85,230.99 267.86,231.29 265.85,231.63 C262.70,232.15 262.02,231.90 260.94,229.87 ZM 179.72 215.83 C177.82,212.90 174.65,208.49 172.68,206.03 C170.71,203.58 169.26,201.41 169.45,201.21 C169.65,201.02 172.18,201.57 175.08,202.43 C181.27,204.27 186.47,204.43 190.83,202.91 C192.55,202.31 194.42,201.97 194.98,202.16 C195.73,202.41 186.11,218.04 183.48,220.83 C183.31,221.02 181.61,218.77 179.72,215.83 ZM 118.55 217.08 C117.87,215.99 129.00,207.88 130.18,208.61 C132.00,209.74 130.81,212.05 127.75,213.33 C125.96,214.08 123.88,215.43 123.13,216.35 C121.62,218.16 119.44,218.52 118.55,217.08 ZM 241.50 215.53 C239.85,214.18 237.71,213.06 236.75,213.04 C234.67,212.99 234.39,210.17 236.39,209.40 C238.03,208.78 249.14,215.97 248.39,217.18 C247.45,218.70 244.52,218.00 241.50,215.53 ZM 176.16 198.14 C165.69,194.43 156.00,181.44 156.00,171.10 L 156.00 166.26 L 162.75 166.35 C170.36,166.45 175.42,164.37 180.41,159.12 L 183.32 156.06 L 187.29 159.64 C194.65,166.29 202.28,168.29 209.38,165.44 C211.12,164.74 211.22,165.14 210.80,171.09 C210.01,182.27 203.42,192.21 193.69,196.90 C187.33,199.96 182.32,200.31 176.16,198.14 ZM 157.00 139.90 C157.00,138.49 160.84,136.09 165.00,134.89 C170.77,133.22 196.95,133.20 202.71,134.85 C206.64,135.97 210.00,138.27 210.00,139.82 C210.00,140.19 198.07,140.50 183.50,140.50 C168.92,140.50 157.00,140.23 157.00,139.90 ZM 476.00 273.01 C476.00,271.59 483.03,254.68 484.08,253.57 C484.91,252.69 487.67,258.09 492.09,269.25 L 493.97 274.00 L 484.99 274.00 C479.73,274.00 476.00,273.59 476.00,273.01 ZM 679.43 267.67 C679.15,266.95 679.05,262.11 679.21,256.92 L 679.50 247.50 L 686.42 247.20 C697.49,246.72 703.00,250.39 703.00,258.23 C703.00,261.41 702.32,262.88 699.60,265.60 C696.29,268.91 695.98,269.00 688.07,269.00 C682.24,269.00 679.79,268.62 679.43,267.67 ZM 833.45 286.12 C825.30,282.41 821.00,275.84 821.00,267.09 C821.00,255.47 828.07,247.91 839.63,247.17 C847.38,246.68 850.83,247.96 855.42,253.05 C870.21,269.42 853.17,295.07 833.45,286.12 Z" fill="rgb(252,252,252)"/>
</g>
</svg>